# xmcd
#
# Track frame offsets: 
#        150
#        6416
#        29959
#        57902
#        71826
#        80243
#        94095
#        103014
#        115694
#        124266
#        133299
#        163716
#        187114
#        202295
#        213845
#        221659
#        241306
#        248158
#        261609
#        278316
#        287552
#
# Disc length: 4046 seconds
#
# Revision: 0
# Processed by: cddbd v1.5.2PL0 Copyright (c) Steve Scherf et al.
# Submitted via: ExactAudioCopy v0.99pb5
#
DISCID=540fcc15
DTITLE=Capilla Virelai - La epoca dorada del villancico
DYEAR=2001
DGENRE=Chamber Music
TTITLE0=Rey a quien reyes
TTITLE1=Desposastes
TTITLE2=Vella de vos
TTITLE3=Tan mala noche me distes serrana
TTITLE4=Soy Serranica
TTITLE5=Un nino nos es nacido
TTITLE6=Dime robadora
TTITLE7=Si te vas
TTITLE8=Alca la nina
TTITLE9=Falalanlera
TTITLE10=Si la noche se hace oscura
TTITLE11=Ah Pelayo
TTITLE12=Soleta i verge
TTITLE13=Vos Virgen
TTITLE14=Gozate Virgen
TTITLE15=Ojos garcos
TTITLE16=Yo me soy la morenica
TTITLE17=Vi los barcos
TTITLE18=Vesame y abracame and las vacas
TTITLE19=No la devemos dormir
TTITLE20=Que farem del pobre Joan
EXTD=
EXTT0=
EXTT1=
EXTT2=
EXTT3=
EXTT4=
EXTT5=
EXTT6=
EXTT7=
EXTT8=
EXTT9=
EXTT10=
EXTT11=
EXTT12=
EXTT13=
EXTT14=
EXTT15=
EXTT16=
EXTT17=
EXTT18=
EXTT19=
EXTT20=
PLAYORDER=
